#!OML:ASF G:\JayActor3\Patient Classification 1\Patient 1\Session 5\male.ASF
:FULLY-SPECIFIED
:DEGREES
589
root 3.62558 17.6035 -4.76405 -37.985 81.3831 -54.4263
lowerback 21.6208 -1.28773 4.78358
upperback 7.32483 -0.231314 -0.138205
thorax -4.10881 0.112093 -2.83116
lowerneck 6.31237 0.939363 2.08847
upperneck -19.4757 2.37816 2.31212
head -6.99438 0.958344 0.190492
rclavicle -7.15625e-015 3.18055e-015
rhumerus -30.589 -1.1549 -89.414
rradius 28.5132
rwrist 3.03258
rhand -21.7208 -9.273
rfingers 7.12502
rthumb 4.67839 -39.2013
lclavicle -7.15625e-015 3.18055e-015
lhumerus -32.1397 6.85722 84.4145
lradius 27.2438
lwrist 22.0297
lhand -20.2019 13.0788
lfingers 7.12502
lthumb 6.14486 42.9697
rfemur -33.5407 2.53927 31.9011
rtibia 42.347
rfoot -1.47329 -8.17432
rtoes -3.05
lfemur -49.4007 3.98724 -14.0621
ltibia 41.7009
lfoot 5.14729 -5.45531
ltoes -13.5761
590
root 3.50285 17.6278 -4.76838 -37.6456 81.662 -54.1951
lowerback 21.6549 -1.32219 4.67853
upperback 7.31406 -0.295627 -0.154974
thorax -4.14337 0.0793811 -2.77363
lowerneck 6.23294 0.929231 2.08568
upperneck -19.4695 2.36026 2.30057
head -6.97807 0.952452 0.189183
rclavicle -1.31198e-014 1.90833e-014
rhumerus -30.6876 -1.3742 -89.1943
rradius 28.3731
rwrist 3.13408
rhand -21.8119 -9.282
rfingers 7.12502
rthumb 4.59041 -39.2123
lclavicle -1.31198e-014 1.90833e-014
lhumerus -32.1165 6.82721 84.4239
lradius 27.2992
lwrist 21.9933
lhand -20.3433 13.0036
lfingers 7.12502
lthumb 6.0084 42.8984
rfemur -34.0499 2.23234 31.68
rtibia 42.1203
rfoot -1.01546 -8.07563
rtoes -2.53127
lfemur -49.5874 3.6635 -14.2105
ltibia 43.9226
lfoot 4.13296 -4.9234
ltoes -15.1194
591
root 3.38089 17.6527 -4.77319 -37.1648 81.9021 -53.8132
lowerback 21.6945 -1.34688 4.57178
upperback 7.30272 -0.347593 -0.171054
thorax -4.18016 0.0525983 -2.71736
lowerneck 6.18534 0.924057 2.08954
upperneck -19.5154 2.35208 2.27744
head -6.9841 0.951114 0.1818
rclavicle -1.70955e-014 -2.42517e-014
rhumerus -30.7772 -1.55825 -88.9899
rradius 28.2372
rwrist 3.22031
rhand -21.8952 -9.28318
rfingers 7.12502
rthumb 4.51001 -39.2152
lclavicle -1.70955e-014 -2.42517e-014
lhumerus -32.1105 6.78518 84.4329
lradius 27.3791
lwrist 21.986
lhand -20.4827 12.9122
lfingers 7.12502
lthumb 5.87382 42.8108
rfemur -34.545 1.89381 31.4856
rtibia 41.8853
rfoot -0.507723 -7.96459
rtoes -1.8783
lfemur -49.6807 3.39073 -14.3468
ltibia 46.0809
lfoot 3.25951 -4.25554
ltoes -16.4356
592
root 3.26016 17.6783 -4.77853 -36.5333 82.0919 -53.2747
lowerback 21.7362 -1.3606 4.46881
upperback 7.28686 -0.384998 -0.185129
thorax -4.22156 0.0325602 -2.66464
lowerneck 6.17161 0.924738 2.0978
upperneck -19.6049 2.35377 2.24222
head -7.01012 0.954583 0.168564
rclavicle 7.15625e-015 -1.11319e-014
rhumerus -30.8631 -1.69926 -88.8041
rradius 28.1084
rwrist 3.28989
rhand -21.9588 -9.28786
rfingers 7.12502
rthumb 4.44851 -39.2211
lclavicle 7.15625e-015 -1.11319e-014
lhumerus -32.1314 6.73329 84.4391
lradius 27.4822
lwrist 22.01
lhand -20.5873 12.81
lfingers 7.12502
lthumb 5.77284 42.7113
rfemur -35.0194 1.53924 31.325
rtibia 41.6289
rfoot 0.0599348 -7.84272
rtoes -1.14871
lfemur -49.6793 3.18757 -14.4682
ltibia 48.166
lfoot 2.55062 -3.49376
ltoes -17.436
593
root 3.14104 17.7052 -4.7844 -35.792 82.2249 -52.6204
lowerback 21.7823 -1.36566 4.38065
upperback 7.26118 -0.408684 -0.197212
thorax -4.27466 0.0185381 -2.62158
lowerneck 6.18556 0.931734 2.10976
upperneck -19.7127 2.36414 2.19623
head -7.04683 0.962355 0.150255
rclavicle -3.18055e-015 9.93923e-015
rhumerus -30.9522 -1.80181 -88.6398
rradius 27.9855
rwrist 3.3508
rhand -21.99 -9.29492
rfingers 7.12502
rthumb 4.41842 -39.2288
lclavicle -3.18055e-015 9.93923e-015
lhumerus -32.1868 6.67653 84.4368
lradius 27.5986
lwrist 22.0601
lhand -20.6554 12.7615
lfingers 7.12502
lthumb 5.7071 42.6647
rfemur -35.4597 1.18883 31.2012
rtibia 41.3341
rfoot 0.683918 -7.71491
rtoes -0.328019
lfemur -49.5788 3.05641 -14.5648
ltibia 50.1654
lfoot 2.01069 -2.7016
ltoes -18.247
594
root 3.02376 17.7333 -4.79089 -34.9795 82.2993 -51.8895
lowerback 21.8247 -1.36342 4.31221
upperback 7.22786 -0.419656 -0.205124
thorax -4.33311 0.0102405 -2.58841
lowerneck 6.21187 0.944812 2.12062
upperneck -19.8128 2.38061 2.14201
head -7.08315 0.973588 0.128925
rclavicle 1.19271e-015 1.74931e-014
rhumerus -31.0402 -1.87496 -88.4938
rradius 27.8669
rwrist 3.41308
rhand -22.0073 -9.29216
rfingers 7.12502
rthumb 4.40175 -39.2264
lclavicle 1.19271e-015 1.74931e-014
lhumerus -32.2668 6.61609 84.4292
lradius 27.7137
lwrist 22.134
lhand -20.6615 12.7865
lfingers 7.12502
lthumb 5.70114 42.6898
rfemur -35.8584 0.858652 31.1125
rtibia 40.9874
rfoot 1.37576 -7.5798
rtoes 0.44265
lfemur -49.3775 3.00475 -14.6361
ltibia 52.0656
lfoot 1.64419 -1.92449
ltoes -18.7906
595
root 2.90846 17.7629 -4.79798 -34.1498 82.3285 -51.1357
lowerback 21.8527 -1.35736 4.26397
upperback 7.19068 -0.422635 -0.208184
thorax -4.38778 0.00568092 -2.56349
lowerneck 6.23851 0.9619 2.12939
upperneck -19.8859 2.39858 2.07979
head -7.11067 0.986336 0.105345
rclavicle -1.94809e-014 -1.19271e-014
rhumerus -31.124 -1.93307 -88.3604
rradius 27.7545
rwrist 3.4807
rhand -22.0213 -9.29032
rfingers 7.12502
rthumb 4.38816 -39.2249
lclavicle -1.94809e-014 -1.19271e-014
lhumerus -32.3575 6.56416 84.4151
lradius 27.8088
lwrist 22.2118
lhand -20.6039 12.857
lfingers 7.12502
lthumb 5.75678 42.7588
rfemur -36.2086 0.558444 31.0468
rtibia 40.5789
rfoot 2.12739 -7.44306
rtoes 1.13601
lfemur -49.0718 3.01686 -14.6857
ltibia 53.8486
lfoot 1.4455 -1.20199
ltoes -19.1002
596
root 2.79508 17.7941 -4.80555 -33.3234 82.3254 -50.3752
lowerback 21.8606 -1.35076 4.23275
upperback 7.15439 -0.422644 -0.208548
thorax -4.43109 0.00275784 -2.54609
lowerneck 6.25905 0.981963 2.13526
upperneck -19.9213 2.4161 2.0117
head -7.12474 0.999624 0.0806329
rclavicle -1.35174e-014 -1.51076e-014
rhumerus -31.1994 -1.98655 -88.2379
rradius 27.6516
rwrist 3.55196
rhand -22.0266 -9.27995
rfingers 7.12502
rthumb 4.38306 -39.2146
lclavicle -1.35174e-014 -1.51076e-014
lhumerus -32.4493 6.51717 84.3956
lradius 27.879
lwrist 22.2831
lhand -20.4922 12.9659
lfingers 7.12502
lthumb 5.86459 42.8648
rfemur -36.5045 0.292785 30.992
rtibia 40.1054
rfoot 2.92436 -7.3074
rtoes 1.68122
lfemur -48.6573 3.08937 -14.7249
ltibia 55.498
lfoot 1.40126 -0.576487
ltoes -19.2449
597
root 2.68321 17.8266 -4.81341 -32.5028 82.3124 -49.6115
lowerback 21.8308 -1.34514 4.20264
upperback 7.12784 -0.425301 -0.203686
thorax -4.44482 -0.000667816 -2.52296
lowerneck 6.26964 1.00308 2.13745
upperneck -19.9215 2.42983 1.9344
head -7.12545 1.01223 0.0541338
rclavicle 2.78299e-015 -2.10712e-014
rhumerus -31.2533 -2.04301 -88.1171
rradius 27.5586
rwrist 3.61844
rhand -22.0315 -9.28001
rfingers 7.12502
rthumb 4.37839 -39.2147
lclavicle 2.78299e-015 -2.10712e-014
lhumerus -32.5209 6.48668 84.3769
lradius 27.9156
lwrist 22.3304
lhand -20.3382 13.112
lfingers 7.12502
lthumb 6.01334 43.0067
rfemur -36.7515 0.0625169 30.9292
rtibia 39.5709
rfoot 3.74631 -7.17785
rtoes 2.07301
lfemur -48.1383 3.2079 -14.7705
ltibia 56.9992
lfoot 1.49791 -0.0680485
ltoes -19.2586
598
root 2.57273 17.8601 -4.82133 -31.7126 82.313 -48.8685
lowerback 21.7536 -1.34486 4.16612
upperback 7.1167 -0.437995 -0.194008
thorax -4.41837 -0.00778294 -2.48841
lowerneck 6.26502 1.02252 2.13531
upperneck -19.8906 2.43641 1.84879
head -7.11321 1.02256 0.0265629
rclavicle -7.95139e-015 5.4467e-014
rhumerus -31.2802 -2.10632 -87.9954
rradius 27.4754
rwrist 3.67999
rhand -22.0411 -9.28399
rfingers 7.12502
rthumb 4.36906 -39.2189
lclavicle -7.95139e-015 5.4467e-014
lhumerus -32.5581 6.48077 84.3593
lradius 27.9105
lwrist 22.3366
lhand -20.1846 13.2142
lfingers 7.12502
lthumb 6.16164 43.1046
rfemur -36.9546 -0.144985 30.8467
rtibia 38.9859
rfoot 4.57552 -7.06969
rtoes 2.39779
lfemur -47.5218 3.35258 -14.8348
ltibia 58.346
lfoot 1.72785 0.319937
ltoes -19.1543
